<?xml version="1.0" encoding="UTF-8"?>
<svg version="1.1" xmlns="http://www.w3.org/2000/svg" width="600" height="216">
<path d="M0 0 C1.134375 0.350625 2.26875 0.70125 3.4375 1.0625 C4.7059375 1.5265625 4.7059375 1.5265625 6 2 C6.886875 2.268125 7.77375 2.53625 8.6875 2.8125 C11.67868647 4.34851468 12.32312767 6.11577958 14 9 C16.72874305 11.71362536 19.3042526 13.7680842 23 15 C23.61875 14.071875 24.2375 13.14375 24.875 12.1875 C29 6 29 6 32 5 C32.5775 4.38125 33.155 3.7625 33.75 3.125 C42.01523463 -4.68105493 54.57305663 -3.08027723 65.125 -3.125 C66.05513916 -3.12975342 66.98527832 -3.13450684 67.94360352 -3.1394043 C75.40111663 -3.12153961 82.70857279 -2.6464513 90 -1 C90 -0.34 90 0.32 90 1 C90.9075 1.0825 91.815 1.165 92.75 1.25 C96.59004264 2.13616369 97.49244644 3.02228015 100 6 C100.46277344 6.50789063 100.92554688 7.01578125 101.40234375 7.5390625 C105.27126847 11.85099387 107.80944378 15.89511004 111 21 C111.33 13.41 111.66 5.82 112 -2 C116.37832044 -2.02293649 120.75643301 -2.04285548 125.13476562 -2.05493164 C126.62468166 -2.05996514 128.11459274 -2.06679242 129.60449219 -2.07543945 C131.74415304 -2.08754805 133.88374868 -2.09323807 136.0234375 -2.09765625 C137.31169434 -2.10289307 138.59995117 -2.10812988 139.92724609 -2.11352539 C143 -2 143 -2 145 -1 C145 22.43 145 45.86 145 70 C159.52 70 174.04 70 189 70 C189 78.91 189 87.82 189 97 C163.59 97 138.18 97 112 97 C111.67 90.07 111.34 83.14 111 76 C111 82.6 111 89.2 111 96 C110.67 96 110.34 96 110 96 C109.67 91.05 109.34 86.1 109 81 C105.43780056 82.78109972 104.32719501 83.47865404 102 86.375 C101.2265625 87.30505859 101.2265625 87.30505859 100.4375 88.25390625 C99.963125 88.83011719 99.48875 89.40632813 99 90 C95.89897177 93.58556389 93.59779211 94.80797982 89 96 C88.3723877 96.16749756 87.74477539 96.33499512 87.09814453 96.50756836 C79.40275561 98.3131098 71.70185183 98.40656623 63.84130859 98.42553711 C61.50383018 98.43748043 59.16895922 98.48683968 56.83203125 98.53710938 C48.42989091 98.62701424 40.96892636 98.31533462 34 93 C33.67 92.34 33.34 91.68 33 91 C31.515 90.505 31.515 90.505 30 90 C29.29700569 88.68545779 28.63589178 87.34828182 28 86 C26.83102663 84.5506846 25.62060692 83.13400769 24.375 81.75 C23.74335938 81.04359375 23.11171875 80.3371875 22.4609375 79.609375 C21.97882813 79.07828125 21.49671875 78.5471875 21 78 C19.79371992 80.33214148 18.8345262 82.49642139 18 85 C17.01 85.495 17.01 85.495 16 86 C15.21625 86.78375 14.4325 87.5675 13.625 88.375 C9.31556337 92.68443663 7.03378454 94.10610599 1 95 C-0.47042812 95.4964675 -1.93755496 96.0027579 -3.40234375 96.515625 C-9.6020178 98.40307129 -15.50302603 98.36992031 -21.9375 98.25 C-23.04029297 98.24484375 -24.14308594 98.2396875 -25.27929688 98.234375 C-47.90329592 98.02081513 -47.90329592 98.02081513 -56.125 91.25 C-58.34530403 88.58563516 -60.44868015 85.85978121 -62.48828125 83.0546875 C-63.40856634 81.80386074 -64.35793857 80.57294937 -65.35546875 79.3828125 C-73.76434972 68.98167358 -74.76659003 53.83328488 -74 41 C-72.88218957 32.43643535 -70.53269672 25.19866243 -66.40234375 17.62109375 C-64.95339481 15.03472259 -64.95339481 15.03472259 -63.9375 12.30078125 C-62.78392879 9.46972523 -61.31856526 7.9672675 -59 6 C-58.01 5.67 -57.02 5.34 -56 5 C-55.54625 4.54625 -55.0925 4.0925 -54.625 3.625 C-50.56446902 -0.43553098 -46.83514404 -1.37838724 -41.28125 -1.7890625 C-38.97662404 -1.95674734 -38.97662404 -1.95674734 -36.66235352 -2.50048828 C-24.9425414 -4.69936362 -11.2087757 -3.90288416 0 0 Z M-28 21 C-28 21.33 -28 21.66 -28 22 C-24.7 22 -21.4 22 -18 22 C-18 21.67 -18 21.34 -18 21 C-21.3 21 -24.6 21 -28 21 Z M60 21 C60 21.33 60 21.66 60 22 C63.3 22 66.6 22 70 22 C70 21.67 70 21.34 70 21 C66.7 21 63.4 21 60 21 Z M-35 27 C-35.99 27 -36.98 27 -38 27 C-41.41276901 34.1588466 -42.63215418 40.16078126 -42.5 48.0625 C-42.51546875 48.99126953 -42.5309375 49.92003906 -42.546875 50.87695312 C-42.507095 57.9627657 -41.20641278 64.6867068 -36.125 69.9375 C-33.49809581 71.25095209 -30.78924595 72.09046328 -28 73 C-27.34 73.66 -26.68 74.32 -26 75 C-20.22219962 75.66666927 -17.60150832 74.37443943 -13 71 C-12.29875 70.87625 -11.5975 70.7525 -10.875 70.625 C-8.30660479 69.76886826 -7.24654188 68.18124888 -5.8828125 65.91015625 C-1.27361701 55.93716246 -1.4346293 42.27160399 -5.0234375 32.05859375 C-6.98472973 27.92418973 -9.55352035 25.74087982 -13.5625 23.6875 C-21.67289972 22.06542006 -28.45633659 21.63084028 -35 27 Z M50.25 27.25 C44.26355284 34.56676875 44.59922861 45.40828489 45.24609375 54.43359375 C46.05962246 60.20028839 47.00732421 64.66509486 51 69 C53.37625345 70.18391223 53.37625345 70.18391223 56 71 C56.86625 71.721875 57.7325 72.44375 58.625 73.1875 C63.51918759 75.81586 67.65422391 74.87510925 73 74 C73 73.34 73 72.68 73 72 C73.78375 71.9175 74.5675 71.835 75.375 71.75 C78.14044802 71.28474077 78.14044802 71.28474077 79.1875 69 C79.455625 68.34 79.72375 67.68 80 67 C80.66 66.67 81.32 66.34 82 66 C86.65719082 54.76795156 86.16319428 41.27393011 82 30 C78.88832627 25.7950355 76.10799306 24.02159861 71 23 C63.2770351 22.50071616 56.47895422 22.15358291 50.25 27.25 Z M109 76 C110 78 110 78 110 78 Z " fill="#0D0D0D" transform="translate(411,118)"/>
<path d="M0 0 C9.590625 -0.020625 19.18125 -0.04125 29.0625 -0.0625 C33.55629272 -0.07615601 33.55629272 -0.07615601 38.14086914 -0.09008789 C40.56396439 -0.09301347 42.98706014 -0.09556051 45.41015625 -0.09765625 C46.62892456 -0.10277222 47.84769287 -0.10788818 49.10339355 -0.11315918 C52.73748464 -0.11352024 56.36666571 -0.0734956 60 0 C60.65824139 0.0126955 61.31648277 0.02539101 61.99467087 0.03847122 C64.01028667 0.08807235 66.0226171 0.16756837 68.03686523 0.25610352 C69.22779282 0.30162857 70.4187204 0.34715363 71.64573669 0.39405823 C75.60339176 1.10900166 77.85991294 2.52845357 81 5 C82.21484375 7 82.21484375 7 83 9 C84.26576864 11.0189207 85.56882599 13.009611 86.87890625 15 C90.22523497 20.96975717 89.63495197 28.39364582 89 35 C86.23388656 43.60823683 80.35533611 49.82624492 74 56 C74.5775 57.051875 75.155 58.10375 75.75 59.1875 C76.07484375 59.77917969 76.3996875 60.37085938 76.734375 60.98046875 C78.01037087 63.11433473 78.01037087 63.11433473 79.8972168 65.29443359 C81.91513994 67.89081398 83.40855097 70.39035998 84.91015625 73.30859375 C85.42513672 74.30310547 85.94011719 75.29761719 86.47070312 76.32226562 C86.99599609 77.35029297 87.52128906 78.37832031 88.0625 79.4375 C88.59166016 80.46166016 89.12082031 81.48582031 89.66601562 82.54101562 C90.67954549 84.50576298 91.68718441 86.47356407 92.68798828 88.44482422 C93.73036129 90.47487185 94.82344108 92.47886691 95.93359375 94.47265625 C97 97 97 97 96 101 C84.78 101 73.56 101 62 101 C61.01 98.69 60.02 96.38 59 94 C57.11241133 90.15076643 55.11320863 86.36061354 53.125 82.5625 C52.60808594 81.56412109 52.09117188 80.56574219 51.55859375 79.53710938 C47.1178893 69.14828787 47.1178893 69.14828787 39.375 62.0625 C38.59125 62.041875 37.8075 62.02125 37 62 C36.01 61.67 35.02 61.34 34 61 C34 73.21 34 85.42 34 98 C23.858775 103.0706125 11.33823423 99 0 99 C0 66.33 0 33.66 0 0 Z M32 21 C32 27.27 32 33.54 32 40 C32.33 40 32.66 40 33 40 C33 33.73 33 27.46 33 21 C32.67 21 32.34 21 32 21 Z M34 21 C34 21.33 34 21.66 34 22 C39.28 22 44.56 22 50 22 C50 21.67 50 21.34 50 21 C44.72 21 39.44 21 34 21 Z M34 23 C34 27.62 34 32.24 34 37 C37.43879843 37.13467879 40.8723564 37.23395791 44.3125 37.3125 C45.28896484 37.35439453 46.26542969 37.39628906 47.27148438 37.43945312 C49.9332088 37.48518722 52.37904208 37.4700584 55 37 C57.36399031 34.88210658 57.36399031 34.88210658 58 32 C57.77752165 28.26906622 57.77752165 28.26906622 57 25 C51.68468311 23.22589949 47.14381195 22.7422332 41.5625 22.875 C40.46518555 22.88853516 40.46518555 22.88853516 39.34570312 22.90234375 C37.56365702 22.92563847 35.78178241 22.9614981 34 23 Z M34 38 C34 38.33 34 38.66 34 39 C39.28 39 44.56 39 50 39 C50 38.67 50 38.34 50 38 C44.72 38 39.44 38 34 38 Z " fill="#131313" transform="translate(6,1)"/>
<path d="M0 0 C31 0 31 0 33 1 C33 11.23 33 21.46 33 32 C41.91 32 50.82 32 60 32 C60 21.77 60 11.54 60 1 C70.75639345 -2.58546448 82.66176577 0 94 0 C94 32.67 94 65.34 94 99 C62 99 62 99 60 98 C60 86.12 60 74.24 60 62 C51.09 62 42.18 62 33 62 C33 74.21 33 86.42 33 99 C22.11 99 11.22 99 0 99 C0 66.33 0 33.66 0 0 Z M33 33 C33 33.33 33 33.66 33 34 C41.91 34 50.82 34 60 34 C60 33.67 60 33.34 60 33 C51.09 33 42.18 33 33 33 Z M33 60 C33 60.33 33 60.66 33 61 C41.91 61 50.82 61 60 61 C60 60.67 60 60.34 60 60 C51.09 60 42.18 60 33 60 Z " fill="#141414" transform="translate(226,116)"/>
<path d="M0 0 C1.92965857 0.02511732 3.85934867 0.04792442 5.7890625 0.06835938 C10.48516218 0.12307537 15.179729 0.20915698 19.875 0.3125 C19.875 0.9725 19.875 1.6325 19.875 2.3125 C20.9475 2.395 22.02 2.4775 23.125 2.5625 C27.27788386 3.39307677 28.24571371 4.13922345 30.875 7.3125 C31.9578125 8.3334375 31.9578125 8.3334375 33.0625 9.375 C34.875 11.3125 34.875 11.3125 35.875 14.3125 C36.87931898 16.47178581 37.90303069 18.62062247 38.9375 20.765625 C40.09737115 23.91660829 40.48564086 26.98672405 40.875 30.3125 C36.62519417 30.64834006 32.37512606 30.98073911 28.125 31.3125 C26.9184375 31.40789062 25.711875 31.50328125 24.46875 31.6015625 C23.30859375 31.69179687 22.1484375 31.78203125 20.953125 31.875 C19.88481445 31.95878906 18.81650391 32.04257813 17.71582031 32.12890625 C15.43947461 32.27601969 13.1560945 32.3125 10.875 32.3125 C10.54628906 31.35537109 10.54628906 31.35537109 10.2109375 30.37890625 C9.2478723 27.86945588 8.29696269 25.59625825 6.875 23.3125 C3.758975 22.09459281 3.758975 22.09459281 0.875 22.3125 C0.875 21.6525 0.875 20.9925 0.875 20.3125 C-1.435 20.3125 -3.745 20.3125 -6.125 20.3125 C-6.125 20.9725 -6.125 21.6325 -6.125 22.3125 C-8.105 22.9725 -10.085 23.6325 -12.125 24.3125 C-11.63 26.7875 -11.63 26.7875 -11.125 29.3125 C-8.815 29.6425 -6.505 29.9725 -4.125 30.3125 C-4.125 30.9725 -4.125 31.6325 -4.125 32.3125 C-2.97 32.456875 -1.815 32.60125 -0.625 32.75 C3.54166667 33.27083333 7.70833333 33.79166667 11.875 34.3125 C11.875 34.9725 11.875 35.6325 11.875 36.3125 C12.57367188 36.36148438 13.27234375 36.41046875 13.9921875 36.4609375 C14.90226562 36.53570312 15.81234375 36.61046875 16.75 36.6875 C17.65492187 36.75710937 18.55984375 36.82671875 19.4921875 36.8984375 C21.875 37.3125 21.875 37.3125 23.875 39.3125 C25.94368641 40.48475563 27.57782106 41.26747289 29.9375 41.625 C32.847411 42.65754907 33.37052951 44.65074452 34.875 47.3125 C35.86156729 48.40808025 36.86284555 49.49051376 37.875 50.5625 C42.72801621 56.13984698 44.46269258 62.66310241 44.15625 69.9921875 C43.15459463 78.25584431 40.16431849 84.00388576 34.875 90.3125 C34.3490625 91.01375 33.823125 91.715 33.28125 92.4375 C30.1304453 96.63857293 27.36261619 99.09655571 22 99.875 C21.34257813 99.93816406 20.68515625 100.00132812 20.0078125 100.06640625 C17.84114877 100.27861122 17.84114877 100.27861122 15.6171875 100.81738281 C10.38384779 101.76229137 5.05334171 101.4971426 -0.25 101.5 C-1.42304687 101.51224609 -2.59609375 101.52449219 -3.8046875 101.53710938 C-11.14789835 101.54934806 -17.95791266 100.88652557 -25.125 99.3125 C-25.99656738 99.17610107 -26.86813477 99.03970215 -27.76611328 98.89916992 C-31.21672138 98.04098204 -32.7869203 95.90334507 -35.125 93.3125 C-36.96688612 91.25979537 -36.96688612 91.25979537 -39.125 90.3125 C-39.49643188 88.98927392 -39.82286002 87.65324618 -40.125 86.3125 C-40.76389001 84.80046032 -41.43195961 83.30049848 -42.125 81.8125 C-44.65249836 76.38581235 -45.24127144 72.35861493 -45.125 66.3125 C-35.41556184 65.47470564 -25.86444972 65.18973383 -16.125 65.3125 C-15.87105469 66.01117188 -15.61710937 66.70984375 -15.35546875 67.4296875 C-15.01128906 68.33976562 -14.66710937 69.24984375 -14.3125 70.1875 C-13.97605469 71.09242188 -13.63960937 71.99734375 -13.29296875 72.9296875 C-12.22850976 75.60675849 -12.22850976 75.60675849 -9.125 77.3125 C-7.46950469 77.69749891 -5.8027567 78.04043135 -4.125 78.3125 C-4.125 78.9725 -4.125 79.6325 -4.125 80.3125 C-0.825 80.3125 2.475 80.3125 5.875 80.3125 C5.875 79.6525 5.875 78.9925 5.875 78.3125 C8.35 77.8175 8.35 77.8175 10.875 77.3125 C10.875 74.0125 10.875 70.7125 10.875 67.3125 C9.9675 67.02375 9.06 66.735 8.125 66.4375 C4.96547524 65.34381835 2.17831572 64.04860252 -0.72265625 62.41015625 C-4.18962858 60.82605995 -7.78272527 59.81452816 -11.4375 58.75 C-12.17162109 58.52892578 -12.90574219 58.30785156 -13.66210938 58.08007812 C-17.11833979 57.06498295 -20.3450344 56.28313196 -23.9296875 55.8046875 C-28.3297054 55.12693413 -30.90411882 53.28697497 -34.125 50.3125 C-35.3125 48.375 -35.3125 48.375 -36.125 46.3125 C-37.115 44.9203125 -37.115 44.9203125 -38.125 43.5 C-42.1354253 37.10838468 -43.11291205 30.43168062 -41.6953125 23.0859375 C-40.1710229 17.60978596 -37.59640506 14.08697861 -33.6484375 10.0390625 C-31.89765146 8.28137079 -31.89765146 8.28137079 -31.125 5.3125 C-22.78032957 -2.13007959 -10.32952531 -0.23419954 0 0 Z M11.875 68.3125 C11.875 70.6225 11.875 72.9325 11.875 75.3125 C12.205 75.3125 12.535 75.3125 12.875 75.3125 C12.875 73.0025 12.875 70.6925 12.875 68.3125 C12.545 68.3125 12.215 68.3125 11.875 68.3125 Z " fill="#111111" transform="translate(45.125,114.6875)"/>
<path d="M0 0 C1.15693359 -0.00128906 2.31386719 -0.00257812 3.50585938 -0.00390625 C4.70662109 -0.00003906 5.90738281 0.00382813 7.14453125 0.0078125 C8.91666992 0.00201172 8.91666992 0.00201172 10.72460938 -0.00390625 C30.44862334 0.01794861 30.44862334 0.01794861 35.45703125 3.4453125 C36.08609375 3.85394531 36.71515625 4.26257813 37.36328125 4.68359375 C39.21287992 6.3654592 39.9189193 7.868978 40.95703125 10.1328125 C41.97705107 11.67501753 42.99794346 13.21664567 44.01953125 14.7578125 C47.13211736 19.84700439 47.93189193 24.2250722 47.95703125 30.1328125 C38.27041109 31.17799695 28.68357898 31.23653161 18.95703125 31.1328125 C18.61091797 30.28396484 18.61091797 30.28396484 18.2578125 29.41796875 C17.93167969 28.68449219 17.60554688 27.95101563 17.26953125 27.1953125 C16.95628906 26.46441406 16.64304687 25.73351562 16.3203125 24.98046875 C15.08783054 22.94016566 15.08783054 22.94016566 12.734375 22.38671875 C9.54407009 22.09505937 6.41107486 22.00056353 3.20703125 22.0078125 C1.48226562 22.00394531 1.48226562 22.00394531 -0.27734375 22 C-2.95209205 21.81781086 -2.95209205 21.81781086 -4.04296875 23.1328125 C-4.08360707 24.79898365 -4.08568975 26.46669345 -4.04296875 28.1328125 C-3.38296875 28.2565625 -2.72296875 28.3803125 -2.04296875 28.5078125 C1.65401708 29.27801788 5.29709067 30.20231913 8.95703125 31.1328125 C8.95703125 31.7928125 8.95703125 32.4528125 8.95703125 33.1328125 C13.02795586 34.27552818 16.34130868 35.1328125 20.58203125 35.1328125 C24.13406807 35.1328125 26.6685211 35.84949147 29.95703125 37.1328125 C29.95703125 37.7928125 29.95703125 38.4528125 29.95703125 39.1328125 C31.02953125 39.2153125 32.10203125 39.2978125 33.20703125 39.3828125 C37.44882447 40.23117114 38.28939493 40.86280669 40.95703125 44.1328125 C41.43011719 44.64070313 41.90320313 45.14859375 42.390625 45.671875 C49.15344828 53.05869943 52.08705941 60.01951089 51.95703125 70.1328125 C51.36716414 75.75923719 49.55521002 80.4621903 46.859375 85.40625 C45.81558847 87.29188635 45.81558847 87.29188635 44.95703125 90.1328125 C43.96703125 90.6278125 43.96703125 90.6278125 42.95703125 91.1328125 C42.29703125 92.1228125 41.63703125 93.1128125 40.95703125 94.1328125 C39.47203125 94.6278125 39.47203125 94.6278125 37.95703125 95.1328125 C37.54453125 95.6278125 37.13203125 96.1228125 36.70703125 96.6328125 C34.0674776 98.89528706 31.33432452 98.81419993 27.95703125 99.1328125 C27.95703125 99.7928125 27.95703125 100.4528125 27.95703125 101.1328125 C14.09703125 101.1328125 0.23703125 101.1328125 -14.04296875 101.1328125 C-14.04296875 100.4728125 -14.04296875 99.8128125 -14.04296875 99.1328125 C-14.64625 99.03484375 -15.24953125 98.936875 -15.87109375 98.8359375 C-20.78269116 97.91699347 -23.83924027 97.23358495 -27.04296875 93.1328125 C-28.88485487 91.08010787 -28.88485487 91.08010787 -31.04296875 90.1328125 C-31.40530198 88.8070661 -31.73481503 87.47218929 -32.04296875 86.1328125 C-32.66282293 84.95213786 -33.31044608 83.78575717 -33.98046875 82.6328125 C-36.04296875 78.1328125 -36.04296875 78.1328125 -38.04296875 66.1328125 C-28.14296875 65.4728125 -18.24296875 64.8128125 -8.04296875 64.1328125 C-6.72296875 67.7628125 -5.40296875 71.3928125 -4.04296875 75.1328125 C-0.8553451 77.25789494 1.22215348 77.6348288 4.95703125 78.1328125 C4.95703125 78.7928125 4.95703125 79.4528125 4.95703125 80.1328125 C10.77211112 80.40761952 10.77211112 80.40761952 15.95703125 78.1328125 C16.61703125 77.4728125 17.27703125 76.8128125 17.95703125 76.1328125 C18.61703125 75.8028125 19.27703125 75.4728125 19.95703125 75.1328125 C20.20718998 71.71638491 20.20718998 71.71638491 19.95703125 68.1328125 C16.67239466 65.94305477 13.7500685 65.13474687 9.95703125 64.1328125 C9.95703125 63.4728125 9.95703125 62.8128125 9.95703125 62.1328125 C7.41744755 61.45719878 4.8758429 60.79215422 2.33203125 60.1328125 C1.26275391 59.84664062 1.26275391 59.84664062 0.171875 59.5546875 C-3.16987778 58.69625559 -5.96381228 58.1328125 -9.44140625 58.1328125 C-10.29992187 58.1328125 -11.1584375 58.1328125 -12.04296875 58.1328125 C-12.70296875 57.4728125 -13.36296875 56.8128125 -14.04296875 56.1328125 C-16.26960439 54.21329902 -17.61771014 53.20723276 -20.54296875 52.6953125 C-24.56670469 51.78997191 -26.44150501 49.01176653 -28.7109375 45.6953125 C-29.21238281 44.8496875 -29.71382813 44.0040625 -30.23046875 43.1328125 C-30.73964844 42.2871875 -31.24882812 41.4415625 -31.7734375 40.5703125 C-34.90584413 34.55609177 -35.23441786 27.09607844 -33.2890625 20.625 C-30.06170669 13.15778459 -25.88310747 6.69290498 -19.04296875 2.1328125 C-17.09161223 1.84955107 -15.13855147 1.56748613 -13.17578125 1.37890625 C-11.00930406 1.16712932 -11.00930406 1.16712932 -8.78735352 0.62573242 C-5.80345619 0.08979356 -3.03106905 0.00328317 0 0 Z M1.95703125 19.1328125 C1.95703125 19.4628125 1.95703125 19.7928125 1.95703125 20.1328125 C4.59703125 20.1328125 7.23703125 20.1328125 9.95703125 20.1328125 C9.95703125 19.8028125 9.95703125 19.4728125 9.95703125 19.1328125 C7.31703125 19.1328125 4.67703125 19.1328125 1.95703125 19.1328125 Z " fill="#111111" transform="translate(336.04296875,-0.1328125)"/>
<path d="M0 0 C30.59199247 -0.88872443 30.59199247 -0.88872443 39.20605469 6.46826172 C45.48399961 13.84036276 51.38502829 21.52516072 53.57324219 31.07373047 C48.52211766 32.88821209 43.43325759 34.07157404 38.19824219 35.19873047 C37.36679688 35.38048828 36.53535156 35.56224609 35.67871094 35.74951172 C33.64418903 36.1938326 31.6088014 36.63418624 29.57324219 37.07373047 C29.57324219 37.73373047 29.57324219 38.39373047 29.57324219 39.07373047 C28.25324219 39.07373047 26.93324219 39.07373047 25.57324219 39.07373047 C25.17105469 37.37216797 25.17105469 37.37216797 24.76074219 35.63623047 C24.36886719 34.46060547 23.97699219 33.28498047 23.57324219 32.07373047 C22.58324219 31.74373047 21.59324219 31.41373047 20.57324219 31.07373047 C20.57324219 30.41373047 20.57324219 29.75373047 20.57324219 29.07373047 C16.63020771 27.22336792 13.47738283 26.80327515 9.13574219 26.82373047 C8.04390625 26.81857422 6.95207031 26.81341797 5.82714844 26.80810547 C2.42435853 27.08588424 -0.27734349 27.76877548 -3.42675781 29.07373047 C-4.74372451 30.95743517 -4.74372451 30.95743517 -5.42675781 33.07373047 C-6.08675781 34.06373047 -6.74675781 35.05373047 -7.42675781 36.07373047 C-8.97141029 40.70768789 -8.65248739 45.34464507 -8.67675781 50.19873047 C-8.69738281 51.20677734 -8.71800781 52.21482422 -8.73925781 53.25341797 C-8.77535802 60.22075814 -8.47043856 67.59523818 -3.67675781 73.07373047 C-0.63974945 74.42351196 2.28210066 74.75727455 5.57324219 75.07373047 C5.57324219 75.73373047 5.57324219 76.39373047 5.57324219 77.07373047 C7.22324219 77.07373047 8.87324219 77.07373047 10.57324219 77.07373047 C10.90324219 76.41373047 11.23324219 75.75373047 11.57324219 75.07373047 C14.56958101 73.71689779 17.56264133 72.43263545 20.66308594 71.33154297 C23.41211283 69.5213453 23.81866306 67.53422351 24.82324219 64.44873047 C25.40074219 62.67498047 25.97824219 60.90123047 26.57324219 59.07373047 C30.86324219 59.40373047 35.15324219 59.73373047 39.57324219 60.07373047 C39.57324219 60.73373047 39.57324219 61.39373047 39.57324219 62.07373047 C42.87324219 62.40373047 46.17324219 62.73373047 49.57324219 63.07373047 C49.57324219 63.73373047 49.57324219 64.39373047 49.57324219 65.07373047 C51.22324219 65.07373047 52.87324219 65.07373047 54.57324219 65.07373047 C53.87237703 73.13367977 50.90426963 80.2678302 46.57324219 87.07373047 C46.07824219 88.55873047 46.07824219 88.55873047 45.57324219 90.07373047 C44.58324219 90.56873047 44.58324219 90.56873047 43.57324219 91.07373047 C42.91324219 92.06373047 42.25324219 93.05373047 41.57324219 94.07373047 C40.08824219 94.56873047 40.08824219 94.56873047 38.57324219 95.07373047 C38.24324219 95.73373047 37.91324219 96.39373047 37.57324219 97.07373047 C35.57600672 97.42324668 33.57514092 97.75199674 31.57324219 98.07373047 C30.38601562 98.57388672 29.19878906 99.07404297 27.97558594 99.58935547 C21.21613688 101.88542011 14.10261941 101.48417491 7.05053711 101.40991211 C4.61702038 101.38604687 2.18458274 101.38940096 -0.24902344 101.39599609 C-1.79655603 101.39042695 -3.34408403 101.3833219 -4.89160156 101.37451172 C-5.61862778 101.37542313 -6.34565399 101.37633453 -7.0947113 101.37727356 C-12.19561985 101.30486843 -12.19561985 101.30486843 -14.42675781 99.07373047 C-16.4836791 97.90814174 -18.07016882 97.11830409 -20.42675781 96.82373047 C-23.05751048 95.83719822 -23.8195618 94.20686836 -25.23144531 91.86669922 C-26.6005577 89.81303064 -28.17707494 88.12412258 -29.86425781 86.32373047 C-40.62391271 74.24798044 -42.30921355 58.63109823 -41.42675781 43.07373047 C-39.79798464 30.37482102 -35.79268145 19.31211998 -26.06347656 10.69482422 C-24.1737096 9.06708286 -24.1737096 9.06708286 -23.42675781 6.07373047 C-16.00338155 0.78877535 -8.79068756 0.26708125 0 0 Z M2.57324219 24.07373047 C2.57324219 24.40373047 2.57324219 24.73373047 2.57324219 25.07373047 C6.53324219 25.07373047 10.49324219 25.07373047 14.57324219 25.07373047 C14.57324219 24.74373047 14.57324219 24.41373047 14.57324219 24.07373047 C10.61324219 24.07373047 6.65324219 24.07373047 2.57324219 24.07373047 Z " fill="#101010" transform="translate(149.4267578125,114.92626953125)"/>
<path d="M0 0 C0.33 0 0.66 0 1 0 C1 32.34 1 64.68 1 98 C0.67 98 0.34 98 0 98 C0 65.66 0 33.32 0 0 Z " fill="#FBFBFB" transform="translate(321,117)"/>
<path d="M0 0 C0.33 0 0.66 0 1 0 C1 32.34 1 64.68 1 98 C0.67 98 0.34 98 0 98 C0 65.66 0 33.32 0 0 Z " fill="#FCFCFC" transform="translate(224,117)"/>
<path d="M0 0 C0.33 0 0.66 0 1 0 C1 32.01 1 64.02 1 97 C0.67 97 0.34 97 0 97 C0 64.99 0 32.98 0 0 Z " fill="#FDFDFD" transform="translate(4,2)"/>
<path d="M0 0 C0.66 0.33 1.32 0.66 2 1 C-0.52172458 6.04344915 -4.43277659 10.6863523 -9 14 C-11.25390625 13.7265625 -11.25390625 13.7265625 -13 13 C-12.67 12.34 -12.34 11.68 -12 11 C-11.01 11 -10.02 11 -9 11 C-7.37249963 8.67676547 -7.37249963 8.67676547 -6 6 C-4 3 -4 3 -1 2 C-0.67 1.34 -0.34 0.68 0 0 Z " fill="#8F8F8F" transform="translate(444,121)"/>
<path d="M0 0 C0.66 0.33 1.32 0.66 2 1 C-0.63482263 6.26964527 -4.79943911 9.97903554 -9 14 C-9 9.96466351 -8.79854729 7.9316385 -6.125 4.8125 C-4 3 -4 3 -1 2 C-0.67 1.34 -0.34 0.68 0 0 Z " fill="#989898" transform="translate(356,121)"/>
<path d="M0 0 C9.9 0 19.8 0 30 0 C30 0.33 30 0.66 30 1 C20.1 1 10.2 1 0 1 C0 0.67 0 0.34 0 0 Z " fill="#FEFEFE" transform="translate(523,114)"/>
<path d="M0 0 C9.9 0 19.8 0 30 0 C30 0.33 30 0.66 30 1 C20.1 1 10.2 1 0 1 C0 0.67 0 0.34 0 0 Z " fill="#FEFEFE" transform="translate(289,114)"/>
<path d="M0 0 C9.9 0 19.8 0 30 0 C30 0.33 30 0.66 30 1 C20.1 1 10.2 1 0 1 C0 0.67 0 0.34 0 0 Z " fill="#FEFEFE" transform="translate(226,114)"/>
<path d="M0 0 C9.9 0 19.8 0 30 0 C30 0.33 30 0.66 30 1 C20.1 1 10.2 1 0 1 C0 0.67 0 0.34 0 0 Z " fill="#FEFEFE" transform="translate(7,101)"/>
<path d="M0 0 C0.66 0.33 1.32 0.66 2 1 C-0.41337795 5.82675589 -3.86062408 8.69984002 -8 12 C-6.14317911 7.00086685 -4.52148281 3.01432188 0 0 Z " fill="#7A7A7A" transform="translate(314,4)"/>
<path d="M0 0 C7.59 0 15.18 0 23 0 C23 0.33 23 0.66 23 1 C15.41 1 7.82 1 0 1 C0 0.67 0 0.34 0 0 Z " fill="#FBFBFB" transform="translate(33,113)"/>
<path d="M0 0 C7.59 0 15.18 0 23 0 C23 0.33 23 0.66 23 1 C15.41 1 7.82 1 0 1 C0 0.67 0 0.34 0 0 Z " fill="#FBFBFB" transform="translate(332,102)"/>
<path d="M0 0 C0.33 0 0.66 0 1 0 C1 7.26 1 14.52 1 22 C0.67 22 0.34 22 0 22 C0 14.74 0 7.48 0 0 Z " fill="#FCFCFC" transform="translate(141,155)"/>
<path d="M0 0 C0.33 0 0.66 0 1 0 C1 6.93 1 13.86 1 21 C0.67 21 0.34 21 0 21 C0 14.07 0 7.14 0 0 Z " fill="#FCFCFC" transform="translate(370,155)"/>
<path d="M0 0 C0.33 0 0.66 0 1 0 C1 6.6 1 13.2 1 20 C-1.08229108 16.87656337 -1.23770457 16.46147078 -0.9765625 12.98828125 C-0.925 12.23095703 -0.8734375 11.47363281 -0.8203125 10.69335938 C-0.75585938 9.90767578 -0.69140625 9.12199219 -0.625 8.3125 C-0.56828125 7.51521484 -0.5115625 6.71792969 -0.453125 5.89648438 C-0.31183972 3.93026419 -0.15720094 1.96501176 0 0 Z " fill="#FDFDFD" transform="translate(521,117)"/>
<path d="M0 0 C6.93 0 13.86 0 21 0 C21 0.33 21 0.66 21 1 C14.07 1 7.14 1 0 1 C0 0.67 0 0.34 0 0 Z " fill="#FBFBFB" transform="translate(378,113)"/>
<path d="M0 0 C6.6 0 13.2 0 20 0 C20 0.33 20 0.66 20 1 C13.4 1 6.8 1 0 1 C0 0.67 0 0.34 0 0 Z " fill="#FBFBFB" transform="translate(466,113)"/>
<path d="M0 0 C6.6 0 13.2 0 20 0 C20 0.33 20 0.66 20 1 C13.4 1 6.8 1 0 1 C0 0.67 0 0.34 0 0 Z " fill="#FBFBFB" transform="translate(148,113)"/>
<path d="M0 0 C5.61 0 11.22 0 17 0 C17 0.33 17 0.66 17 1 C11.39 1 5.78 1 0 1 C0 0.67 0 0.34 0 0 Z " fill="#FCFCFC" transform="translate(355,32)"/>
<path d="M0 0 C5.28 0 10.56 0 16 0 C16 0.33 16 0.66 16 1 C10.72 1 5.44 1 0 1 C0 0.67 0 0.34 0 0 Z " fill="#FCFCFC" transform="translate(309,63)"/>
<path d="M0 0 C4.95 0 9.9 0 15 0 C15 0.33 15 0.66 15 1 C10.05 1 5.1 1 0 1 C0 0.67 0 0.34 0 0 Z " fill="#FCFCFC" transform="translate(62,147)"/>
<path d="M0 0 C4.62 0 9.24 0 14 0 C14 0.33 14 0.66 14 1 C9.38 1 4.76 1 0 1 C0 0.67 0 0.34 0 0 Z " fill="#FCFCFC" transform="translate(0,179)"/>
<path d="M0 0 C4.62 0 9.24 0 14 0 C14 0.33 14 0.66 14 1 C9.38 1 4.76 1 0 1 C0 0.67 0 0.34 0 0 Z " fill="#FCFCFC" transform="translate(15,178)"/>
<path d="M0 0 C0.33 0 0.66 0 1 0 C1 4.62 1 9.24 1 14 C0.67 14 0.34 14 0 14 C0 9.38 0 4.76 0 0 Z " fill="#FCFCFC" transform="translate(106,158)"/>
<path d="M0 0 C0.33 0 0.66 0 1 0 C1 4.62 1 9.24 1 14 C0.67 14 0.34 14 0 14 C0 9.38 0 4.76 0 0 Z " fill="#FBFBFB" transform="translate(96,22)"/>
<path d="M0 0 C0.33 0 0.66 0 1 0 C1 4.29 1 8.58 1 13 C0.67 13 0.34 13 0 13 C0 8.71 0 4.42 0 0 Z " fill="#FDFDFD" transform="translate(335,159)"/>
<path d="M0 0 C0.33 0 0.66 0 1 0 C1 3.96 1 7.92 1 12 C0.67 12 0.34 12 0 12 C0 8.04 0 4.08 0 0 Z " fill="#FCFCFC" transform="translate(406,159)"/>
<path d="M0 0 C3.96 0 7.92 0 12 0 C12 0.33 12 0.66 12 1 C8.04 1 4.08 1 0 1 C0 0.67 0 0.34 0 0 Z " fill="#FCFCFC" transform="translate(372,31)"/>
<path d="M0 0 C0 3 0 3 -1.5 4.6875 C-1.995 5.120625 -2.49 5.55375 -3 6 C-3.66 5.67 -4.32 5.34 -5 5 C-3.35 3.35 -1.7 1.7 0 0 Z " fill="#FDFDFD" transform="translate(516,201)"/>
<path d="M0 0 C0.33 0 0.66 0 1 0 C1 3.63 1 7.26 1 11 C0.67 11 0.34 11 0 11 C0 7.37 0 3.74 0 0 Z " fill="#FBFBFB" transform="translate(300,23)"/>
<path d="M0 0 C3.3 0 6.6 0 10 0 C10 0.33 10 0.66 10 1 C6.7 1 3.4 1 0 1 C0 0.67 0 0.34 0 0 Z " fill="#FBFBFB" transform="translate(41,194)"/>
<path d="M0 0 C3.3 0 6.6 0 10 0 C10 0.33 10 0.66 10 1 C6.7 1 3.4 1 0 1 C0 0.67 0 0.34 0 0 Z " fill="#FCFCFC" transform="translate(299,64)"/>
<path d="M0 0 C0.33 0 0.66 0 1 0 C1 2.97 1 5.94 1 9 C0.67 9 0.34 9 0 9 C0 6.03 0 3.06 0 0 Z " fill="#FCFCFC" transform="translate(90,178)"/>
<path d="M0 0 C0.33 0 0.66 0 1 0 C1 2.97 1 5.94 1 9 C0.67 9 0.34 9 0 9 C0 6.03 0 3.06 0 0 Z " fill="#FDFDFD" transform="translate(494,160)"/>
<path d="M0 0 C1.98 0.99 1.98 0.99 4 2 C4 2.99 4 3.98 4 5 C2.68 3.35 1.36 1.7 0 0 Z " fill="#FDFDFD" transform="translate(79,160)"/>
<path d="M0 0 C1.98 0.99 1.98 0.99 4 2 C4 2.99 4 3.98 4 5 C2.68 3.35 1.36 1.7 0 0 Z " fill="#FDFDFD" transform="translate(378,45)"/>
<path d="M0 0 C0.33 0 0.66 0 1 0 C1 2.64 1 5.28 1 8 C0.67 8 0.34 8 0 8 C0 5.36 0 2.72 0 0 Z " fill="#FCFCFC" transform="translate(458,169)"/>
<path d="M0 0 C0.33 0 0.66 0 1 0 C1 2.64 1 5.28 1 8 C0.67 8 0.34 8 0 8 C0 5.36 0 2.72 0 0 Z " fill="#FCFCFC" transform="translate(458,155)"/>
<path d="M0 0 C0.33 0 0.66 0 1 0 C1 2.64 1 5.28 1 8 C0.67 8 0.34 8 0 8 C0 5.36 0 2.72 0 0 Z " fill="#FCFCFC" transform="translate(1,140)"/>
<path d="M0 0 C2.64 0 5.28 0 8 0 C8 0.33 8 0.66 8 1 C5.36 1 2.72 1 0 1 C0 0.67 0 0.34 0 0 Z " fill="#FCFCFC" transform="translate(66,0)"/>
<path d="M0 0 C2.31 0 4.62 0 7 0 C7 0.33 7 0.66 7 1 C4.69 1 2.38 1 0 1 C0 0.67 0 0.34 0 0 Z " fill="#FDFDFD" transform="translate(385,191)"/>
<path d="M0 0 C0.33 0 0.66 0 1 0 C1 2.31 1 4.62 1 7 C0.67 7 0.34 7 0 7 C0 4.69 0 2.38 0 0 Z " fill="#FCFCFC" transform="translate(107,173)"/>
<path d="M0 0 C0.33 0 0.66 0 1 0 C1 2.31 1 4.62 1 7 C0.67 7 0.34 7 0 7 C0 4.69 0 2.38 0 0 Z " fill="#FCFCFC" transform="translate(493,170)"/>
<path d="M0 0 C0.33 0 0.66 0 1 0 C1 2.31 1 4.62 1 7 C0.67 7 0.34 7 0 7 C0 4.69 0 2.38 0 0 Z " fill="#FCFCFC" transform="translate(336,152)"/>
<path d="M0 0 C0.33 0 0.66 0 1 0 C1 2.31 1 4.62 1 7 C0.67 7 0.34 7 0 7 C0 4.69 0 2.38 0 0 Z " fill="#FCFCFC" transform="translate(107,151)"/>
<path d="M0 0 C2.31 0 4.62 0 7 0 C7 0.33 7 0.66 7 1 C4.69 1 2.38 1 0 1 C0 0.67 0 0.34 0 0 Z " fill="#FCFCFC" transform="translate(78,146)"/>
<path d="M0 0 C2.31 0 4.62 0 7 0 C7 0.33 7 0.66 7 1 C4.69 1 2.38 1 0 1 C0 0.67 0 0.34 0 0 Z " fill="#FCFCFC" transform="translate(39,135)"/>
<path d="M0 0 C2.31 0 4.62 0 7 0 C7 0.33 7 0.66 7 1 C4.69 1 2.38 1 0 1 C0 0.67 0 0.34 0 0 Z " fill="#FCFCFC" transform="translate(341,79)"/>
<path d="M0 0 C0.33 0 0.66 0 1 0 C1 2.31 1 4.62 1 7 C0.67 7 0.34 7 0 7 C0 4.69 0 2.38 0 0 Z " fill="#FCFCFC" transform="translate(355,68)"/>
<path d="M0 0 C1.98 0 3.96 0 6 0 C6 0.33 6 0.66 6 1 C4.02 1 2.04 1 0 1 C0 0.67 0 0.34 0 0 Z " fill="#FDFDFD" transform="translate(473,191)"/>
<path d="M0 0 C0.33 0 0.66 0 1 0 C1 1.98 1 3.96 1 6 C0.67 6 0.34 6 0 6 C0 4.02 0 2.04 0 0 Z " fill="#FCFCFC" transform="translate(336,173)"/>
<path d="M0 0 C0.33 0 0.66 0 1 0 C1 1.98 1 3.96 1 6 C0.67 6 0.34 6 0 6 C0 4.02 0 2.04 0 0 Z " fill="#FCFCFC" transform="translate(405,172)"/>
<path d="M0 0 C0.33 0 0.66 0 1 0 C1 1.98 1 3.96 1 6 C0.67 6 0.34 6 0 6 C0 4.02 0 2.04 0 0 Z " fill="#FCFCFC" transform="translate(493,154)"/>
<path d="M0 0 C0.33 0 0.66 0 1 0 C1 1.98 1 3.96 1 6 C0.67 6 0.34 6 0 6 C0 4.02 0 2.04 0 0 Z " fill="#FCFCFC" transform="translate(405,153)"/>
<path d="M0 0 C0.33 0 0.66 0 1 0 C1 1.98 1 3.96 1 6 C0.67 6 0.34 6 0 6 C0 4.02 0 2.04 0 0 Z " fill="#FDFDFD" transform="translate(389,64)"/>
<path d="M0 0 C1.65 0 3.3 0 5 0 C5 0.33 5 0.66 5 1 C3.35 1 1.7 1 0 1 C0 0.67 0 0.34 0 0 Z " fill="#FDFDFD" transform="translate(155,191)"/>
<path d="M0 0 C1.65 0 3.3 0 5 0 C5 0.33 5 0.66 5 1 C3.35 1 1.7 1 0 1 C0 0.67 0 0.34 0 0 Z " fill="#FCFCFC" transform="translate(179,152)"/>
<path d="M0 0 C0.33 0 0.66 0 1 0 C1 1.65 1 3.3 1 5 C0.67 5 0.34 5 0 5 C0 3.35 0 1.7 0 0 Z " fill="#FCFCFC" transform="translate(86,138)"/>
<path d="M0 0 C1.65 0 3.3 0 5 0 C5 0.33 5 0.66 5 1 C3.35 1 1.7 1 0 1 C0 0.67 0 0.34 0 0 Z " fill="#FCFCFC" transform="translate(487,114)"/>
<path d="M0 0 C1.65 0 3.3 0 5 0 C5 0.33 5 0.66 5 1 C3.35 1 1.7 1 0 1 C0 0.67 0 0.34 0 0 Z " fill="#FCFCFC" transform="translate(460,114)"/>
<path d="M0 0 C1.65 0 3.3 0 5 0 C5 0.33 5 0.66 5 1 C3.35 1 1.7 1 0 1 C0 0.67 0 0.34 0 0 Z " fill="#FCFCFC" transform="translate(399,114)"/>
<path d="M0 0 C1.65 0 3.3 0 5 0 C5 0.33 5 0.66 5 1 C3.35 1 1.7 1 0 1 C0 0.67 0 0.34 0 0 Z " fill="#FCFCFC" transform="translate(372,114)"/>
<path d="M0 0 C1.65 0 3.3 0 5 0 C5 0.33 5 0.66 5 1 C3.35 1 1.7 1 0 1 C0 0.67 0 0.34 0 0 Z " fill="#FCFCFC" transform="translate(169,114)"/>
<path d="M0 0 C1.65 0 3.3 0 5 0 C5 0.33 5 0.66 5 1 C3.35 1 1.7 1 0 1 C0 0.67 0 0.34 0 0 Z " fill="#FCFCFC" transform="translate(142,114)"/>
<path d="M0 0 C1.65 0 3.3 0 5 0 C5 0.33 5 0.66 5 1 C3.35 1 1.7 1 0 1 C0 0.67 0 0.34 0 0 Z " fill="#FCFCFC" transform="translate(56,114)"/>
<path d="M0 0 C1.65 0 3.3 0 5 0 C5 0.33 5 0.66 5 1 C3.35 1 1.7 1 0 1 C0 0.67 0 0.34 0 0 Z " fill="#FCFCFC" transform="translate(28,114)"/>
<path d="M0 0 C1.65 0 3.3 0 5 0 C5 0.33 5 0.66 5 1 C3.35 1 1.7 1 0 1 C0 0.67 0 0.34 0 0 Z " fill="#FCFCFC" transform="translate(355,101)"/>
<path d="M0 0 C1.65 0 3.3 0 5 0 C5 0.33 5 0.66 5 1 C3.35 1 1.7 1 0 1 C0 0.67 0 0.34 0 0 Z " fill="#FCFCFC" transform="translate(326,101)"/>
<path d="M0 0 C0.33 0 0.66 0 1 0 C1 1.65 1 3.3 1 5 C0.67 5 0.34 5 0 5 C0 3.35 0 1.7 0 0 Z " fill="#FCFCFC" transform="translate(388,71)"/>
<path d="M0 0 C0.33 0 0.66 0 1 0 C1 1.65 1 3.3 1 5 C0.67 5 0.34 5 0 5 C0 3.35 0 1.7 0 0 Z " fill="#FCFCFC" transform="translate(297,69)"/>
<path d="M0 0 C0.33 0 0.66 0 1 0 C1 1.65 1 3.3 1 5 C0.67 5 0.34 5 0 5 C0 3.35 0 1.7 0 0 Z " fill="#FCFCFC" transform="translate(388,59)"/>
<path d="M0 0 C0 0.99 0 1.98 0 3 C-0.66 2.67 -1.32 2.34 -2 2 C-1.34 1.34 -0.68 0.68 0 0 Z " fill="#FDFDFD" transform="translate(88,48)"/>
<path d="M0 0 C0.33 0 0.66 0 1 0 C1 1.65 1 3.3 1 5 C0.67 5 0.34 5 0 5 C0 3.35 0 1.7 0 0 Z " fill="#FCFCFC" transform="translate(332,23)"/>
<path d="M0 0 C0.33 0 0.66 0 1 0 C1 1.65 1 3.3 1 5 C0.67 5 0.34 5 0 5 C0 3.35 0 1.7 0 0 Z " fill="#FCFCFC" transform="translate(385,24)"/>
<path d="M0 0 C4 1 4 1 4 1 Z " fill="#FCFCFC" transform="translate(22,215)"/>
<path d="M0 0 C1 4 1 4 1 4 Z " fill="#FCFCFC" transform="translate(89,188)"/>
<path d="M0 0 C0.66 0.33 1.32 0.66 2 1 C1.01 1 0.02 1 -1 1 C-0.67 0.67 -0.34 0.34 0 0 Z " fill="#FCFCFC" transform="translate(487,187)"/>
<path d="M0 0 C1 4 1 4 1 4 Z " fill="#FDFDFD" transform="translate(204,184)"/>
<path d="M0 0 C1 4 1 4 1 4 Z " fill="#FCFCFC" transform="translate(31,181)"/>
<path d="M0 0 C1 4 1 4 1 4 Z " fill="#FCFCFC" transform="translate(337,180)"/>
<path d="M0 0 C1 4 1 4 1 4 Z " fill="#FCFCFC" transform="translate(108,180)"/>
<path d="M0 0 C1 4 1 4 1 4 Z " fill="#FCFCFC" transform="translate(142,177)"/>
<path d="M0 0 C1 4 1 4 1 4 Z " fill="#FDFDFD" transform="translate(459,177)"/>
<path d="M0 0 C4 1 4 1 4 1 Z " fill="#FCFCFC" transform="translate(42,177)"/>
<path d="M0 0 C4 1 4 1 4 1 Z " fill="#FCFCFC" transform="translate(189,176)"/>
<path d="M0 0 C4 1 4 1 4 1 Z " fill="#FCFCFC" transform="translate(38,176)"/>
<path d="M0 0 C1 4 1 4 1 4 Z " fill="#FCFCFC" transform="translate(89,174)"/>
<path d="M0 0 C4 1 4 1 4 1 Z " fill="#FCFCFC" transform="translate(34,175)"/>
<path d="M0 0 C4 1 4 1 4 1 Z " fill="#FDFDFD" transform="translate(179,173)"/>
<path d="M0 0 C1 4 1 4 1 4 Z " fill="#FFFFFF" transform="translate(457,164)"/>
<path d="M0 0 C1 4 1 4 1 4 Z " fill="#FCFCFC" transform="translate(142,151)"/>
<path d="M0 0 C1 4 1 4 1 4 Z " fill="#FCFCFC" transform="translate(459,151)"/>
<path d="M0 0 C1 4 1 4 1 4 Z " fill="#FCFCFC" transform="translate(371,151)"/>
<path d="M0 0 C1 4 1 4 1 4 Z " fill="#FDFDFD" transform="translate(492,150)"/>
<path d="M0 0 C4 1 4 1 4 1 Z " fill="#FCFCFC" transform="translate(184,151)"/>
<path d="M0 0 C4 1 4 1 4 1 Z " fill="#FCFCFC" transform="translate(188,150)"/>
<path d="M0 0 C4 1 4 1 4 1 Z " fill="#FCFCFC" transform="translate(57,150)"/>
<path d="M0 0 C1 4 1 4 1 4 Z " fill="#FCFCFC" transform="translate(337,148)"/>
<path d="M0 0 C4 1 4 1 4 1 Z " fill="#FCFCFC" transform="translate(193,149)"/>
<path d="M0 0 C4 1 4 1 4 1 Z " fill="#FCFCFC" transform="translate(197,148)"/>
<path d="M0 0 C1 4 1 4 1 4 Z " fill="#FCFCFC" transform="translate(108,147)"/>
<path d="M0 0 C4 1 4 1 4 1 Z " fill="#FDFDFD" transform="translate(57,148)"/>
<path d="M0 0 C4 1 4 1 4 1 Z " fill="#FCFCFC" transform="translate(45,147)"/>
<path d="M0 0 C4 1 4 1 4 1 Z " fill="#FCFCFC" transform="translate(41,146)"/>
<path d="M0 0 C1 4 1 4 1 4 Z " fill="#FDFDFD" transform="translate(33,139)"/>
<path d="M0 0 C0 3 0 3 0 3 Z " fill="#FDFDFD" transform="translate(435,129)"/>
<path d="M0 0 C4 1 4 1 4 1 Z " fill="#FCFCFC" transform="translate(492,115)"/>
<path d="M0 0 C4 1 4 1 4 1 Z " fill="#FCFCFC" transform="translate(404,115)"/>
<path d="M0 0 C4 1 4 1 4 1 Z " fill="#FCFCFC" transform="translate(348,78)"/>
<path d="M0 0 C1 4 1 4 1 4 Z " fill="#FDFDFD" transform="translate(298,74)"/>
<path d="M0 0 C1 4 1 4 1 4 Z " fill="#FCFCFC" transform="translate(330,67)"/>
<path d="M0 0 C4 1 4 1 4 1 Z " fill="#FCFCFC" transform="translate(342,62)"/>
<path d="M0 0 C4 1 4 1 4 1 Z " fill="#FCFCFC" transform="translate(338,61)"/>
<path d="M0 0 C4 1 4 1 4 1 Z " fill="#FCFCFC" transform="translate(334,60)"/>
<path d="M0 0 C4 1 4 1 4 1 Z " fill="#FCFCFC" transform="translate(330,59)"/>
<path d="M0 0 C4 1 4 1 4 1 Z " fill="#FCFCFC" transform="translate(353,34)"/>
<path d="M0 0 C4 1 4 1 4 1 Z " fill="#FCFCFC" transform="translate(349,33)"/>
<path d="M0 0 C4 1 4 1 4 1 Z " fill="#FCFCFC" transform="translate(345,32)"/>
<path d="M0 0 C1 4 1 4 1 4 Z " fill="#FDFDFD" transform="translate(62,29)"/>
<path d="M0 0 C1 4 1 4 1 4 Z " fill="#FDFDFD" transform="translate(384,20)"/>
<path d="M0 0 C1 4 1 4 1 4 Z " fill="#FDFDFD" transform="translate(95,18)"/>
<path d="M0 0 C4 1 4 1 4 1 Z " fill="#FCFCFC" transform="translate(74,1)"/>
<path d="M0 0 C3 1 3 1 3 1 Z " fill="#FCFCFC" transform="translate(494,215)"/>
<path d="M0 0 C3 1 3 1 3 1 Z " fill="#FCFCFC" transform="translate(406,215)"/>
<path d="M0 0 C3 1 3 1 3 1 Z " fill="#FCFCFC" transform="translate(368,215)"/>
<path d="M0 0 C3 1 3 1 3 1 Z " fill="#FCFCFC" transform="translate(176,215)"/>
<path d="M0 0 C3 1 3 1 3 1 Z " fill="#FCFCFC" transform="translate(63,215)"/>
<path d="M0 0 C3 1 3 1 3 1 Z " fill="#FDFDFD" transform="translate(497,214)"/>
<path d="M0 0 C3 1 3 1 3 1 Z " fill="#FDFDFD" transform="translate(409,214)"/>
<path d="" fill="#FDFDFD" transform="translate(0,0)"/>
<path d="" fill="#FDFDFD" transform="translate(0,0)"/>
<path d="" fill="#FDFDFD" transform="translate(0,0)"/>
<path d="" fill="#FDFDFD" transform="translate(0,0)"/>
<path d="" fill="#FCFCFC" transform="translate(0,0)"/>
<path d="" fill="#FCFCFC" transform="translate(0,0)"/>
<path d="" fill="#FDFDFD" transform="translate(0,0)"/>
<path d="" fill="#FCFCFC" transform="translate(0,0)"/>
<path d="" fill="#FDFDFD" transform="translate(0,0)"/>
<path d="" fill="#FCFCFC" transform="translate(0,0)"/>
<path d="" fill="#FCFCFC" transform="translate(0,0)"/>
<path d="M0 0 C3 1 3 1 3 1 Z " fill="#FCFCFC" transform="translate(199,179)"/>
<path d="" fill="#FCFCFC" transform="translate(0,0)"/>
<path d="M0 0 C3 1 3 1 3 1 Z " fill="#FCFCFC" transform="translate(193,177)"/>
<path d="" fill="#FCFCFC" transform="translate(0,0)"/>
<path d="M0 0 C3 1 3 1 3 1 Z " fill="#FCFCFC" transform="translate(183,174)"/>
<path d="M0 0 C3 1 3 1 3 1 Z " fill="#FCFCFC" transform="translate(31,174)"/>
<path d="M0 0 C3 1 3 1 3 1 Z " fill="#FCFCFC" transform="translate(28,173)"/>
<path d="M0 0 C3 1 3 1 3 1 Z " fill="#FCFCFC" transform="translate(176,172)"/>
<path d="" fill="#FDFDFD" transform="translate(0,0)"/>
<path d="M0 0 C3 1 3 1 3 1 Z " fill="#FCFCFC" transform="translate(25,172)"/>
<path d="" fill="#FCFCFC" transform="translate(0,0)"/>
<path d="M0 0 C3 1 3 1 3 1 Z " fill="#FCFCFC" transform="translate(61,151)"/>
<path d="" fill="#FCFCFC" transform="translate(0,0)"/>
<path d="" fill="#FDFDFD" transform="translate(0,0)"/>
<path d="" fill="#FDFDFD" transform="translate(0,0)"/>
<path d="" fill="#FDFDFD" transform="translate(0,0)"/>
<path d="" fill="#FCFCFC" transform="translate(0,0)"/>
<path d="" fill="#FDFDFD" transform="translate(0,0)"/>
<path d="" fill="#FDFDFD" transform="translate(0,0)"/>
<path d="" fill="#FDFDFD" transform="translate(0,0)"/>
<path d="" fill="#FCFCFC" transform="translate(0,0)"/>
<path d="" fill="#FCFCFC" transform="translate(0,0)"/>
<path d="" fill="#FCFCFC" transform="translate(0,0)"/>
<path d="" fill="#FDFDFD" transform="translate(0,0)"/>
<path d="M0 0 C0.99 0.495 0.99 0.495 2 1 C1.01 1.495 1.01 1.495 0 2 C0 1.34 0 0.68 0 0 Z " fill="#FCFCFC" transform="translate(120,126)"/>
<path d="M0 0 C3 1 3 1 3 1 Z " fill="#FCFCFC" transform="translate(408,116)"/>
<path d="M0 0 C3 1 3 1 3 1 Z " fill="#FCFCFC" transform="translate(366,116)"/>
<path d="M0 0 C3 1 3 1 3 1 Z " fill="#FCFCFC" transform="translate(177,116)"/>
<path d="M0 0 C3 1 3 1 3 1 Z " fill="#FCFCFC" transform="translate(457,115)"/>
<path d="M0 0 C3 1 3 1 3 1 Z " fill="#FCFCFC" transform="translate(369,115)"/>
<path d="M0 0 C3 1 3 1 3 1 Z " fill="#FCFCFC" transform="translate(174,115)"/>
<path d="M0 0 C3 1 3 1 3 1 Z " fill="#FCFCFC" transform="translate(139,115)"/>
<path d="M0 0 C3 1 3 1 3 1 Z " fill="#FCFCFC" transform="translate(319,99)"/>
<path d="" fill="#FCFCFC" transform="translate(0,0)"/>
<path d="M0 0 C3 1 3 1 3 1 Z " fill="#FCFCFC" transform="translate(327,58)"/>
<path d="" fill="#FCFCFC" transform="translate(0,0)"/>
<path d="" fill="#FCFCFC" transform="translate(0,0)"/>
<path d="" fill="#FCFCFC" transform="translate(0,0)"/>
<path d="" fill="#FDFDFD" transform="translate(0,0)"/>
<path d="" fill="#FCFCFC" transform="translate(0,0)"/>
<path d="" fill="#FCFCFC" transform="translate(0,0)"/>
<path d="" fill="#FCFCFC" transform="translate(0,0)"/>
<path d="" fill="#FDFDFD" transform="translate(0,0)"/>
<path d="M0 0 C3 1 3 1 3 1 Z " fill="#FCFCFC" transform="translate(361,0)"/>
<path d="M0 0 C3 1 3 1 3 1 Z " fill="#FCFCFC" transform="translate(322,0)"/>
<path d="M0 0 C2 1 2 1 2 1 Z " fill="#FCFCFC" transform="translate(179,214)"/>
<path d="M0 0 C2 1 2 1 2 1 Z " fill="#FCFCFC" transform="translate(66,214)"/>
<path d="M0 0 C2 1 2 1 2 1 Z " fill="#FCFCFC" transform="translate(20,214)"/>
<path d="M0 0 C2 1 2 1 2 1 Z " fill="#FCFCFC" transform="translate(412,213)"/>
<path d="M0 0 C2 1 2 1 2 1 Z " fill="#FCFCFC" transform="translate(181,213)"/>
<path d="M0 0 C2 1 2 1 2 1 Z " fill="#FCFCFC" transform="translate(133,213)"/>
<path d="M0 0 C2 1 2 1 2 1 Z " fill="#FCFCFC" transform="translate(414,212)"/>
<path d="M0 0 C2 1 2 1 2 1 Z " fill="#FCFCFC" transform="translate(183,212)"/>
<path d="M0 0 C2 1 2 1 2 1 Z " fill="#FCFCFC" transform="translate(129,211)"/>
<path d="" fill="#FDFDFD" transform="translate(0,0)"/>
<path d="" fill="#FEFEFE" transform="translate(0,0)"/>
<path d="" fill="#FDFDFD" transform="translate(0,0)"/>
<path d="" fill="#FDFDFD" transform="translate(0,0)"/>
<path d="" fill="#FDFDFD" transform="translate(0,0)"/>
<path d="" fill="#FDFDFD" transform="translate(0,0)"/>
<path d="" fill="#FCFCFC" transform="translate(0,0)"/>
<path d="" fill="#FDFDFD" transform="translate(0,0)"/>
<path d="" fill="#FDFDFD" transform="translate(0,0)"/>
<path d="" fill="#FDFDFD" transform="translate(0,0)"/>
<path d="" fill="#FCFCFC" transform="translate(0,0)"/>
<path d="" fill="#FCFCFC" transform="translate(0,0)"/>
<path d="" fill="#FDFDFD" transform="translate(0,0)"/>
<path d="" fill="#FCFCFC" transform="translate(0,0)"/>
<path d="" fill="#FDFDFD" transform="translate(0,0)"/>
<path d="" fill="#FCFCFC" transform="translate(0,0)"/>
<path d="" fill="#FCFCFC" transform="translate(0,0)"/>
<path d="" fill="#FCFCFC" transform="translate(0,0)"/>
<path d="" fill="#FCFCFC" transform="translate(0,0)"/>
<path d="" fill="#FCFCFC" transform="translate(0,0)"/>
<path d="" fill="#FCFCFC" transform="translate(0,0)"/>
<path d="" fill="#FDFDFD" transform="translate(0,0)"/>
<path d="" fill="#FCFCFC" transform="translate(0,0)"/>
<path d="" fill="#FCFCFC" transform="translate(0,0)"/>
<path d="" fill="#FCFCFC" transform="translate(0,0)"/>
<path d="" fill="#FCFCFC" transform="translate(0,0)"/>
<path d="" fill="#FDFDFD" transform="translate(0,0)"/>
<path d="" fill="#FCFCFC" transform="translate(0,0)"/>
<path d="" fill="#FCFCFC" transform="translate(0,0)"/>
<path d="" fill="#FCFCFC" transform="translate(0,0)"/>
<path d="" fill="#FBFBFB" transform="translate(0,0)"/>
<path d="M0 0 C2 1 2 1 2 1 Z " fill="#FCFCFC" transform="translate(23,171)"/>
<path d="" fill="#FCFCFC" transform="translate(0,0)"/>
<path d="" fill="#FCFCFC" transform="translate(0,0)"/>
<path d="" fill="#FEFEFE" transform="translate(0,0)"/>
<path d="M0 0 C2 1 2 1 2 1 Z " fill="#FCFCFC" transform="translate(73,156)"/>
<path d="" fill="#FDFDFD" transform="translate(0,0)"/>
<path d="M0 0 C2 1 2 1 2 1 Z " fill="#FDFDFD" transform="translate(69,154)"/>
<path d="" fill="#FCFCFC" transform="translate(0,0)"/>
<path d="" fill="#FCFCFC" transform="translate(0,0)"/>
<path d="" fill="#FCFCFC" transform="translate(0,0)"/>
<path d="" fill="#FCFCFC" transform="translate(0,0)"/>
<path d="" fill="#FCFCFC" transform="translate(0,0)"/>
<path d="" fill="#FCFCFC" transform="translate(0,0)"/>
<path d="" fill="#FDFDFD" transform="translate(0,0)"/>
<path d="" fill="#FDFDFD" transform="translate(0,0)"/>
<path d="" fill="#FDFDFD" transform="translate(0,0)"/>
<path d="" fill="#FCFCFC" transform="translate(0,0)"/>
<path d="" fill="#FBFBFB" transform="translate(0,0)"/>
<path d="" fill="#FDFDFD" transform="translate(0,0)"/>
<path d="" fill="#FCFCFC" transform="translate(0,0)"/>
<path d="" fill="#FCFCFC" transform="translate(0,0)"/>
<path d="" fill="#FCFCFC" transform="translate(0,0)"/>
<path d="" fill="#FCFCFC" transform="translate(0,0)"/>
<path d="" fill="#FCFCFC" transform="translate(0,0)"/>
<path d="" fill="#FDFDFD" transform="translate(0,0)"/>
<path d="" fill="#FCFCFC" transform="translate(0,0)"/>
<path d="" fill="#FDFDFD" transform="translate(0,0)"/>
<path d="" fill="#FDFDFD" transform="translate(0,0)"/>
<path d="" fill="#FDFDFD" transform="translate(0,0)"/>
<path d="" fill="#FCFCFC" transform="translate(0,0)"/>
<path d="" fill="#FDFDFD" transform="translate(0,0)"/>
<path d="" fill="#FDFDFD" transform="translate(0,0)"/>
<path d="" fill="#FDFDFD" transform="translate(0,0)"/>
<path d="" fill="#FDFDFD" transform="translate(0,0)"/>
<path d="" fill="#FDFDFD" transform="translate(0,0)"/>
<path d="" fill="#FCFCFC" transform="translate(0,0)"/>
<path d="" fill="#FDFDFD" transform="translate(0,0)"/>
<path d="" fill="#FDFDFD" transform="translate(0,0)"/>
<path d="" fill="#FDFDFD" transform="translate(0,0)"/>
<path d="M0 0 C2 1 2 1 2 1 Z " fill="#FDFDFD" transform="translate(415,119)"/>
<path d="M0 0 C2 1 2 1 2 1 Z " fill="#FCFCFC" transform="translate(501,118)"/>
<path d="M0 0 C2 1 2 1 2 1 Z " fill="#FCFCFC" transform="translate(413,118)"/>
<path d="M0 0 C2 1 2 1 2 1 Z " fill="#FCFCFC" transform="translate(411,117)"/>
<path d="M0 0 C2 1 2 1 2 1 Z " fill="#FCFCFC" transform="translate(180,117)"/>
<path d="M0 0 C2 1 2 1 2 1 Z " fill="#FCFCFC" transform="translate(65,116)"/>
<path d="M0 0 C2 1 2 1 2 1 Z " fill="#FCFCFC" transform="translate(364,99)"/>
<path d="M0 0 C2 1 2 1 2 1 Z " fill="#FCFCFC" transform="translate(317,98)"/>
<path d="" fill="#FDFDFD" transform="translate(0,0)"/>
<path d="" fill="#FDFDFD" transform="translate(0,0)"/>
<path d="" fill="#FDFDFD" transform="translate(0,0)"/>
<path d="" fill="#FDFDFD" transform="translate(0,0)"/>
<path d="" fill="#FCFCFC" transform="translate(0,0)"/>
<path d="" fill="#FDFDFD" transform="translate(0,0)"/>
<path d="" fill="#FDFDFD" transform="translate(0,0)"/>
<path d="" fill="#FCFCFC" transform="translate(0,0)"/>
<path d="" fill="#FDFDFD" transform="translate(0,0)"/>
<path d="" fill="#FCFCFC" transform="translate(0,0)"/>
<path d="" fill="#FDFDFD" transform="translate(0,0)"/>
<path d="" fill="#FDFDFD" transform="translate(0,0)"/>
<path d="" fill="#FCFCFC" transform="translate(0,0)"/>
<path d="" fill="#FDFDFD" transform="translate(0,0)"/>
<path d="" fill="#FDFDFD" transform="translate(0,0)"/>
<path d="" fill="#FCFCFC" transform="translate(0,0)"/>
<path d="" fill="#FCFCFC" transform="translate(0,0)"/>
<path d="" fill="#FCFCFC" transform="translate(0,0)"/>
<path d="" fill="#FCFCFC" transform="translate(0,0)"/>
<path d="" fill="#FDFDFD" transform="translate(0,0)"/>
<path d="" fill="#FCFCFC" transform="translate(0,0)"/>
<path d="" fill="#FCFCFC" transform="translate(0,0)"/>
<path d="" fill="#FCFCFC" transform="translate(0,0)"/>
<path d="" fill="#FCFCFC" transform="translate(0,0)"/>
<path d="" fill="#FDFDFD" transform="translate(0,0)"/>
<path d="" fill="#FDFDFD" transform="translate(0,0)"/>
<path d="" fill="#FCFCFC" transform="translate(0,0)"/>
<path d="" fill="#FDFDFD" transform="translate(0,0)"/>
<path d="" fill="#FCFCFC" transform="translate(0,0)"/>
<path d="" fill="#FDFDFD" transform="translate(0,0)"/>
<path d="" fill="#FCFCFC" transform="translate(0,0)"/>
<path d="" fill="#FDFDFD" transform="translate(0,0)"/>
<path d="" fill="#FDFDFD" transform="translate(0,0)"/>
<path d="" fill="#FDFDFD" transform="translate(0,0)"/>
<path d="" fill="#FDFDFD" transform="translate(0,0)"/>
<path d="" fill="#FCFCFC" transform="translate(0,0)"/>
<path d="" fill="#FDFDFD" transform="translate(0,0)"/>
<path d="" fill="#FDFDFD" transform="translate(0,0)"/>
<path d="" fill="#FEFEFE" transform="translate(0,0)"/>
<path d="" fill="#FCFCFC" transform="translate(0,0)"/>
<path d="M0 0 C2 1 2 1 2 1 Z " fill="#FCFCFC" transform="translate(320,55)"/>
<path d="M0 0 C2 1 2 1 2 1 Z " fill="#FCFCFC" transform="translate(318,54)"/>
<path d="" fill="#FDFDFD" transform="translate(0,0)"/>
<path d="M0 0 C2 1 2 1 2 1 Z " fill="#FCFCFC" transform="translate(316,53)"/>
<path d="" fill="#FDFDFD" transform="translate(0,0)"/>
<path d="" fill="#FEFEFE" transform="translate(0,0)"/>
<path d="" fill="#FDFDFD" transform="translate(0,0)"/>
<path d="" fill="#FDFDFD" transform="translate(0,0)"/>
<path d="" fill="#FCFCFC" transform="translate(0,0)"/>
<path d="M0 0 C2 1 2 1 2 1 Z " fill="#FCFCFC" transform="translate(366,38)"/>
<path d="" fill="#FEFEFE" transform="translate(0,0)"/>
<path d="" fill="#FBFBFB" transform="translate(0,0)"/>
<path d="" fill="#FCFCFC" transform="translate(0,0)"/>
<path d="" fill="#FDFDFD" transform="translate(0,0)"/>
<path d="" fill="#FCFCFC" transform="translate(0,0)"/>
<path d="" fill="#FDFDFD" transform="translate(0,0)"/>
<path d="" fill="#FDFDFD" transform="translate(0,0)"/>
<path d="" fill="#FDFDFD" transform="translate(0,0)"/>
<path d="" fill="#FEFEFE" transform="translate(0,0)"/>
<path d="" fill="#FEFEFE" transform="translate(0,0)"/>
<path d="" fill="#FEFEFE" transform="translate(0,0)"/>
<path d="M0 0 C2 1 2 1 2 1 Z " fill="#FCFCFC" transform="translate(320,1)"/>
<path d="" fill="#FBFBFB" transform="translate(0,0)"/>
<path d="" fill="#FBFBFB" transform="translate(0,0)"/>
<path d="" fill="#FBFBFB" transform="translate(0,0)"/>
<path d="" fill="#FBFBFB" transform="translate(0,0)"/>
<path d="" fill="#FBFBFB" transform="translate(0,0)"/>
<path d="" fill="#FBFBFB" transform="translate(0,0)"/>
<path d="" fill="#FCFCFC" transform="translate(0,0)"/>
<path d="" fill="#FBFBFB" transform="translate(0,0)"/>
<path d="" fill="#FBFBFB" transform="translate(0,0)"/>
<path d="" fill="#FBFBFB" transform="translate(0,0)"/>
<path d="" fill="#FCFCFC" transform="translate(0,0)"/>
<path d="" fill="#FCFCFC" transform="translate(0,0)"/>
<path d="" fill="#FBFBFB" transform="translate(0,0)"/>
<path d="" fill="#FBFBFB" transform="translate(0,0)"/>
<path d="" fill="#FCFCFC" transform="translate(0,0)"/>
<path d="" fill="#FBFBFB" transform="translate(0,0)"/>
<path d="" fill="#FCFCFC" transform="translate(0,0)"/>
<path d="" fill="#FAFAFA" transform="translate(0,0)"/>
<path d="" fill="#FAFAFA" transform="translate(0,0)"/>
<path d="" fill="#FCFCFC" transform="translate(0,0)"/>
<path d="" fill="#FBFBFB" transform="translate(0,0)"/>
<path d="" fill="#FBFBFB" transform="translate(0,0)"/>
<path d="" fill="#FCFCFC" transform="translate(0,0)"/>
<path d="" fill="#FBFBFB" transform="translate(0,0)"/>
<path d="" fill="#FBFBFB" transform="translate(0,0)"/>
<path d="" fill="#FBFBFB" transform="translate(0,0)"/>
<path d="" fill="#FBFBFB" transform="translate(0,0)"/>
<path d="" fill="#FBFBFB" transform="translate(0,0)"/>
<path d="" fill="#FBFBFB" transform="translate(0,0)"/>
<path d="" fill="#FCFCFC" transform="translate(0,0)"/>
<path d="" fill="#FCFCFC" transform="translate(0,0)"/>
<path d="" fill="#FBFBFB" transform="translate(0,0)"/>
<path d="" fill="#FBFBFB" transform="translate(0,0)"/>
<path d="" fill="#FCFCFC" transform="translate(0,0)"/>
<path d="" fill="#FBFBFB" transform="translate(0,0)"/>
<path d="" fill="#FCFCFC" transform="translate(0,0)"/>
<path d="" fill="#FCFCFC" transform="translate(0,0)"/>
<path d="" fill="#FCFCFC" transform="translate(0,0)"/>
<path d="" fill="#FBFBFB" transform="translate(0,0)"/>
<path d="" fill="#FCFCFC" transform="translate(0,0)"/>
<path d="" fill="#FBFBFB" transform="translate(0,0)"/>
<path d="" fill="#FBFBFB" transform="translate(0,0)"/>
<path d="" fill="#FCFCFC" transform="translate(0,0)"/>
<path d="" fill="#FBFBFB" transform="translate(0,0)"/>
<path d="" fill="#FCFCFC" transform="translate(0,0)"/>
<path d="" fill="#FDFDFD" transform="translate(0,0)"/>
<path d="" fill="#F9F9F9" transform="translate(0,0)"/>
<path d="" fill="#FBFBFB" transform="translate(0,0)"/>
<path d="" fill="#FBFBFB" transform="translate(0,0)"/>
<path d="" fill="#FBFBFB" transform="translate(0,0)"/>
<path d="" fill="#FCFCFC" transform="translate(0,0)"/>
<path d="" fill="#FBFBFB" transform="translate(0,0)"/>
<path d="" fill="#FAFAFA" transform="translate(0,0)"/>
<path d="" fill="#FAFAFA" transform="translate(0,0)"/>
<path d="" fill="#FAFAFA" transform="translate(0,0)"/>
<path d="" fill="#FAFAFA" transform="translate(0,0)"/>
<path d="" fill="#FAFAFA" transform="translate(0,0)"/>
<path d="" fill="#FBFBFB" transform="translate(0,0)"/>
<path d="" fill="#FAFAFA" transform="translate(0,0)"/>
<path d="" fill="#FAFAFA" transform="translate(0,0)"/>
<path d="" fill="#FAFAFA" transform="translate(0,0)"/>
<path d="" fill="#FAFAFA" transform="translate(0,0)"/>
<path d="" fill="#FBFBFB" transform="translate(0,0)"/>
<path d="" fill="#FBFBFB" transform="translate(0,0)"/>
<path d="" fill="#FBFBFB" transform="translate(0,0)"/>
<path d="" fill="#FAFAFA" transform="translate(0,0)"/>
<path d="" fill="#FAFAFA" transform="translate(0,0)"/>
<path d="" fill="#FFFFFF" transform="translate(0,0)"/>
<path d="" fill="#FCFCFC" transform="translate(0,0)"/>
<path d="" fill="#FCFCFC" transform="translate(0,0)"/>
<path d="" fill="#FCFCFC" transform="translate(0,0)"/>
<path d="" fill="#FBFBFB" transform="translate(0,0)"/>
<path d="" fill="#FCFCFC" transform="translate(0,0)"/>
<path d="" fill="#FDFDFD" transform="translate(0,0)"/>
<path d="" fill="#FBFBFB" transform="translate(0,0)"/>
<path d="" fill="#FBFBFB" transform="translate(0,0)"/>
<path d="" fill="#FBFBFB" transform="translate(0,0)"/>
<path d="" fill="#FBFBFB" transform="translate(0,0)"/>
<path d="" fill="#FAFAFA" transform="translate(0,0)"/>
<path d="" fill="#FBFBFB" transform="translate(0,0)"/>
<path d="" fill="#FAFAFA" transform="translate(0,0)"/>
<path d="" fill="#FBFBFB" transform="translate(0,0)"/>
<path d="" fill="#FAFAFA" transform="translate(0,0)"/>
<path d="" fill="#FAFAFA" transform="translate(0,0)"/>
<path d="" fill="#FAFAFA" transform="translate(0,0)"/>
<path d="" fill="#F9F9F9" transform="translate(0,0)"/>
<path d="" fill="#F9F9F9" transform="translate(0,0)"/>
<path d="" fill="#FBFBFB" transform="translate(0,0)"/>
<path d="" fill="#FCFCFC" transform="translate(0,0)"/>
<path d="" fill="#FBFBFB" transform="translate(0,0)"/>
<path d="" fill="#FBFBFB" transform="translate(0,0)"/>
<path d="" fill="#FCFCFC" transform="translate(0,0)"/>
<path d="" fill="#FCFCFC" transform="translate(0,0)"/>
<path d="" fill="#FBFBFB" transform="translate(0,0)"/>
<path d="" fill="#FCFCFC" transform="translate(0,0)"/>
<path d="" fill="#FBFBFB" transform="translate(0,0)"/>
<path d="" fill="#FBFBFB" transform="translate(0,0)"/>
<path d="" fill="#FCFCFC" transform="translate(0,0)"/>
<path d="" fill="#FBFBFB" transform="translate(0,0)"/>
<path d="" fill="#FBFBFB" transform="translate(0,0)"/>
<path d="" fill="#FBFBFB" transform="translate(0,0)"/>
<path d="" fill="#FBFBFB" transform="translate(0,0)"/>
<path d="" fill="#FCFCFC" transform="translate(0,0)"/>
<path d="" fill="#FCFCFC" transform="translate(0,0)"/>
<path d="" fill="#FCFCFC" transform="translate(0,0)"/>
<path d="" fill="#FBFBFB" transform="translate(0,0)"/>
<path d="" fill="#FCFCFC" transform="translate(0,0)"/>
<path d="" fill="#FCFCFC" transform="translate(0,0)"/>
<path d="" fill="#FCFCFC" transform="translate(0,0)"/>
<path d="" fill="#FCFCFC" transform="translate(0,0)"/>
<path d="" fill="#FCFCFC" transform="translate(0,0)"/>
<path d="" fill="#FBFBFB" transform="translate(0,0)"/>
<path d="" fill="#FCFCFC" transform="translate(0,0)"/>
<path d="" fill="#FCFCFC" transform="translate(0,0)"/>
<path d="" fill="#FBFBFB" transform="translate(0,0)"/>
<path d="" fill="#FCFCFC" transform="translate(0,0)"/>
<path d="" fill="#FBFBFB" transform="translate(0,0)"/>
<path d="" fill="#FBFBFB" transform="translate(0,0)"/>
<path d="" fill="#FBFBFB" transform="translate(0,0)"/>
<path d="" fill="#FBFBFB" transform="translate(0,0)"/>
<path d="" fill="#FBFBFB" transform="translate(0,0)"/>
<path d="" fill="#FBFBFB" transform="translate(0,0)"/>
<path d="" fill="#FAFAFA" transform="translate(0,0)"/>
<path d="" fill="#FBFBFB" transform="translate(0,0)"/>
<path d="" fill="#FCFCFC" transform="translate(0,0)"/>
<path d="" fill="#FCFCFC" transform="translate(0,0)"/>
<path d="" fill="#FBFBFB" transform="translate(0,0)"/>
<path d="" fill="#FBFBFB" transform="translate(0,0)"/>
<path d="" fill="#FBFBFB" transform="translate(0,0)"/>
<path d="" fill="#FBFBFB" transform="translate(0,0)"/>
<path d="" fill="#FBFBFB" transform="translate(0,0)"/>
<path d="" fill="#FDFDFD" transform="translate(0,0)"/>
<path d="" fill="#FBFBFB" transform="translate(0,0)"/>
<path d="" fill="#FBFBFB" transform="translate(0,0)"/>
<path d="" fill="#FCFCFC" transform="translate(0,0)"/>
<path d="" fill="#FCFCFC" transform="translate(0,0)"/>
<path d="" fill="#FBFBFB" transform="translate(0,0)"/>
<path d="" fill="#FCFCFC" transform="translate(0,0)"/>
<path d="" fill="#FBFBFB" transform="translate(0,0)"/>
<path d="" fill="#FBFBFB" transform="translate(0,0)"/>
<path d="" fill="#FCFCFC" transform="translate(0,0)"/>
<path d="" fill="#FFFFFF" transform="translate(0,0)"/>
<path d="" fill="#FBFBFB" transform="translate(0,0)"/>
<path d="" fill="#FBFBFB" transform="translate(0,0)"/>
<path d="" fill="#FCFCFC" transform="translate(0,0)"/>
<path d="" fill="#FDFDFD" transform="translate(0,0)"/>
<path d="" fill="#FCFCFC" transform="translate(0,0)"/>
<path d="" fill="#FCFCFC" transform="translate(0,0)"/>
<path d="" fill="#FCFCFC" transform="translate(0,0)"/>
<path d="" fill="#FCFCFC" transform="translate(0,0)"/>
<path d="" fill="#FCFCFC" transform="translate(0,0)"/>
<path d="" fill="#FCFCFC" transform="translate(0,0)"/>
<path d="" fill="#FBFBFB" transform="translate(0,0)"/>
<path d="" fill="#FBFBFB" transform="translate(0,0)"/>
<path d="" fill="#FAFAFA" transform="translate(0,0)"/>
<path d="" fill="#FAFAFA" transform="translate(0,0)"/>
<path d="" fill="#FAFAFA" transform="translate(0,0)"/>
<path d="" fill="#FBFBFB" transform="translate(0,0)"/>
<path d="" fill="#FBFBFB" transform="translate(0,0)"/>
<path d="" fill="#FBFBFB" transform="translate(0,0)"/>
<path d="" fill="#FAFAFA" transform="translate(0,0)"/>
<path d="" fill="#FBFBFB" transform="translate(0,0)"/>
<path d="" fill="#FCFCFC" transform="translate(0,0)"/>
<path d="" fill="#FBFBFB" transform="translate(0,0)"/>
<path d="" fill="#FDFDFD" transform="translate(0,0)"/>
<path d="" fill="#FAFAFA" transform="translate(0,0)"/>
<path d="" fill="#FDFDFD" transform="translate(0,0)"/>
<path d="" fill="#FCFCFC" transform="translate(0,0)"/>
<path d="" fill="#FCFCFC" transform="translate(0,0)"/>
<path d="" fill="#FBFBFB" transform="translate(0,0)"/>
<path d="" fill="#FCFCFC" transform="translate(0,0)"/>
<path d="" fill="#FBFBFB" transform="translate(0,0)"/>
<path d="" fill="#FCFCFC" transform="translate(0,0)"/>
<path d="" fill="#FCFCFC" transform="translate(0,0)"/>
<path d="" fill="#FDFDFD" transform="translate(0,0)"/>
<path d="" fill="#FBFBFB" transform="translate(0,0)"/>
<path d="" fill="#FDFDFD" transform="translate(0,0)"/>
<path d="" fill="#FCFCFC" transform="translate(0,0)"/>
<path d="" fill="#FCFCFC" transform="translate(0,0)"/>
<path d="" fill="#FBFBFB" transform="translate(0,0)"/>
<path d="" fill="#FBFBFB" transform="translate(0,0)"/>
<path d="" fill="#FCFCFC" transform="translate(0,0)"/>
<path d="" fill="#F9F9F9" transform="translate(0,0)"/>
<path d="" fill="#F9F9F9" transform="translate(0,0)"/>
<path d="" fill="#FAFAFA" transform="translate(0,0)"/>
<path d="" fill="#F9F9F9" transform="translate(0,0)"/>
<path d="" fill="#FBFBFB" transform="translate(0,0)"/>
<path d="" fill="#FCFCFC" transform="translate(0,0)"/>
<path d="" fill="#FCFCFC" transform="translate(0,0)"/>
<path d="" fill="#FCFCFC" transform="translate(0,0)"/>
<path d="" fill="#FCFCFC" transform="translate(0,0)"/>
<path d="" fill="#FCFCFC" transform="translate(0,0)"/>
<path d="" fill="#FCFCFC" transform="translate(0,0)"/>
<path d="" fill="#FBFBFB" transform="translate(0,0)"/>
<path d="" fill="#FCFCFC" transform="translate(0,0)"/>
<path d="" fill="#FBFBFB" transform="translate(0,0)"/>
<path d="" fill="#FAFAFA" transform="translate(0,0)"/>
<path d="" fill="#FCFCFC" transform="translate(0,0)"/>
<path d="" fill="#FCFCFC" transform="translate(0,0)"/>
<path d="" fill="#FBFBFB" transform="translate(0,0)"/>
<path d="" fill="#FBFBFB" transform="translate(0,0)"/>
</svg>
